<svg xmlns="http://www.w3.org/2000/svg" viewBox="0 0 512 512">
  <rect width="512" height="512" rx="96" fill="#0B1F14"/>
  <g transform="translate(0 11)">
    <path d="M158 250 Q256 186 354 250" stroke="#F4FBF6" stroke-width="24" stroke-linecap="round" fill="none"/>
    <g transform="rotate(-13 147 245)">
      <rect x="132" y="150" width="30" height="190" rx="10" fill="#17C964"/>
      <rect x="100" y="156" width="28" height="178" rx="10" fill="#17C964"/>
      <rect x="70" y="167" width="26" height="156" rx="9" fill="#17C964"/>
      <rect x="46" y="195" width="20" height="100" rx="8" fill="#12A150"/>
      <rect x="26" y="218" width="14" height="54" rx="7" fill="#86EFAC"/>
    </g>
    <g transform="rotate(13 365 245)">
      <rect x="350" y="150" width="30" height="190" rx="10" fill="#17C964"/>
      <rect x="384" y="156" width="28" height="178" rx="10" fill="#17C964"/>
      <rect x="416" y="167" width="26" height="156" rx="9" fill="#17C964"/>
      <rect x="446" y="195" width="20" height="100" rx="8" fill="#12A150"/>
      <rect x="472" y="218" width="14" height="54" rx="7" fill="#86EFAC"/>
    </g>
  </g>
</svg>
